<?xml version="1.0" encoding="utf-8"?>
<!-- Generator: Adobe Illustrator 18.0.0, SVG Export Plug-In . SVG Version: 6.00 Build 0)  -->
<!DOCTYPE svg PUBLIC "-//W3C//DTD SVG 1.1//EN" "http://www.w3.org/Graphics/SVG/1.1/DTD/svg11.dtd">
<svg version="1.1" id="Layer_1" xmlns="http://www.w3.org/2000/svg" xmlns:xlink="http://www.w3.org/1999/xlink" x="0px" y="0px"
	 viewBox="0 22.9 595.3 376.6" enable-background="new 0 22.9 595.3 376.6" xml:space="preserve">
<g>
	<rect y="22.9" fill="#003473" width="595.3" height="376.6"/>
	<g>
		<g>
			<g>
				<circle fill="#ED1C2E" cx="188.3" cy="211.2" r="162.9"/>
				<g>
					<path fill="#FCB131" d="M407,48.2c-42.1,0-80.5,16-109.4,42.2c-5.9,5.3-11.4,11.1-16.4,17.2h32.9c4.5,5.5,8.6,11.2,12.4,17.3
						h-57.8c-3.5,5.5-6.6,11.3-9.4,17.3h76.5c2.6,5.6,4.9,11.3,6.9,17.2h-90.3c-1.9,5.6-3.5,11.4-4.7,17.2h99.8
						c2.4,11.1,3.7,22.7,3.7,34.5c0,18.1-2.9,35.5-8.4,51.8h-90.3c2,5.9,4.3,11.7,6.9,17.3h76.5c-2.8,6-5.9,11.7-9.4,17.3h-57.8
						c3.8,6,7.9,11.8,12.4,17.2h32.9c-5.1,6.1-10.6,11.9-16.5,17.3c28.9,26.2,67.3,42.2,109.4,42.2c90,0,162.9-72.9,162.9-162.9
						C570,121.2,497,48.2,407,48.2z"/>
				</g>
			</g>
			<path fill="#FCB131" d="M548.3,302c0-2.9,2.4-5.3,5.3-5.3c2.9,0,5.3,2.4,5.3,5.3c0,2.9-2.3,5.3-5.3,5.3
				C550.6,307.3,548.3,304.9,548.3,302z M553.5,306c2.2,0,4-1.8,4-4c0-2.2-1.8-4-4-4c-2.2,0-4,1.8-4,4
				C549.5,304.2,551.3,306,553.5,306z M552.8,304.3h-1.1v-4.6h2c0.4,0,0.8,0,1.2,0.2c0.4,0.3,0.6,0.7,0.6,1.2c0,0.5-0.3,1-0.8,1.2
				l0.9,2h-1.2l-0.7-1.8h-0.8V304.3z M552.8,301.7h0.6c0.2,0,0.5,0,0.7-0.1c0.2-0.1,0.3-0.3,0.3-0.5c0-0.2-0.1-0.4-0.3-0.5
				c-0.2-0.1-0.5-0.1-0.7-0.1h-0.6L552.8,301.7L552.8,301.7z"/>
		</g>
		<g>
			<g>
				<path fill="#003473" d="M150.2,229c-1.9-0.2-2.7-0.3-4-0.3c-10,0-15.1,3.4-15.1,10.2c0,4.2,2.5,6.8,6.3,6.8
					C144.7,245.8,149.9,239,150.2,229z M163.1,259c-2.4,0-14.7,0-14.7,0l0.3-7c-4.5,5.5-10.4,8.1-18.5,8.1
					c-9.6,0-16.2-7.5-16.2-18.4c0-16.4,11.4-25.9,31.1-25.9c2,0,4.6,0.2,7.2,0.5c0.5-2.2,0.7-3.2,0.7-4.4c0-4.4-3.1-6.1-11.3-6.1
					c-8.7-0.1-15.8,2.1-18.7,3c0.2-1.1,2.5-15.1,2.5-15.1c8.8-2.6,14.6-3.6,21.2-3.6c15.2,0,23.2,6.8,23.2,19.7
					c0,3.5-0.5,7.7-1.4,13.3C166.9,233,163.6,253.9,163.1,259z"/>
				<polygon fill="#003473" points="106.7,259 89,259 99.1,195.4 76.5,259 64.4,259 63,195.8 52.3,259 35.7,259 49.6,176.3 
					75,176.3 76.5,222.6 92.1,176.3 120.4,176.3 				"/>
				<path fill="#003473" d="M428.9,229c-1.9-0.2-2.7-0.3-3.9-0.3c-10,0-15.1,3.4-15.1,10.2c0,4.2,2.5,6.8,6.3,6.8
					C423.4,245.8,428.6,239,428.9,229z M441.8,259c-2.4,0-14.7,0-14.7,0l0.3-7c-4.5,5.5-10.4,8.1-18.5,8.1
					c-9.6,0-16.2-7.5-16.2-18.4c0-16.4,11.4-25.9,31.1-25.9c2,0,4.6,0.2,7.2,0.5c0.5-2.2,0.7-3.2,0.7-4.4c0-4.4-3.1-6.1-11.3-6.1
					c-8.7-0.1-15.8,2.1-18.7,3c0.2-1.1,2.5-15.1,2.5-15.1c8.8-2.6,14.6-3.6,21.2-3.6c15.2,0,23.2,6.8,23.2,19.7
					c0,3.5-0.5,7.7-1.4,13.3C445.5,233,442.2,253.9,441.8,259z"/>
				<path fill="#003473" d="M241.7,257.9c-4.8,1.5-8.6,2.2-12.7,2.2c-9,0-14-5.2-14-14.8c-0.1-3,1.3-10.8,2.4-17.9
					c1-6.3,7.7-45.9,7.7-45.9h17.6l-2,10.2h10.6l-2.4,16.2h-10.7c-2,12.8-5,28.7-5,30.8c0,3.5,1.9,5,6.1,5c2,0,3.6-0.2,4.8-0.6
					L241.7,257.9z"/>
				<path fill="#003473" d="M295.6,257.4c-6,1.8-11.9,2.7-18,2.7c-19.7,0-29.9-10.3-29.9-30c0-23,13-39.9,30.8-39.9
					c14.5,0,23.8,9.5,23.8,24.3c0,4.9-0.6,9.7-2.2,16.5h-35c-1.2,9.8,5.1,13.8,15.3,13.8c6.3,0,12-1.3,18.3-4.2L295.6,257.4z
					 M285.7,217.6c0.1-1.4,1.9-12-8.2-12c-5.6,0-9.6,4.3-11.2,12L285.7,217.6L285.7,217.6z"/>
				<path fill="#003473" d="M173.7,213c0,8.5,4.1,14.4,13.5,18.8c7.2,3.4,8.3,4.4,8.3,7.4c0,4.2-3.2,6.1-10.2,6.1
					c-5.3,0-10.2-0.8-15.9-2.7c0,0-2.3,14.8-2.4,15.5c4,0.9,7.6,1.7,18.4,2c18.7,0,27.3-7.1,27.3-22.5c0-9.2-3.6-14.7-12.5-18.7
					c-7.4-3.4-8.3-4.2-8.3-7.3c0-3.6,2.9-5.5,8.7-5.5c3.5,0,8.2,0.4,12.7,1l2.5-15.6c-4.6-0.7-11.5-1.3-15.6-1.3
					C180.5,190.3,173.7,200.6,173.7,213z"/>
				<path fill="#003473" d="M381.7,192c4.9,0,9.5,1.3,15.8,4.5l2.9-17.9c-2.6-1-11.7-7-19.4-7c-11.8,0-21.9,5.9-28.9,15.6
					c-10.3-3.4-14.5,3.5-19.7,10.3l-4.6,1.1c0.3-2.3,0.7-4.5,0.6-6.8h-16.3c-2.2,20.8-6.1,41.9-9.2,62.7l-0.8,4.5h17.7
					c3-19.2,4.6-31.5,5.6-39.8l6.7-3.7c1-3.7,4.1-5,10.4-4.8c-0.8,4.4-1.3,9-1.3,13.8c0,22,11.9,35.7,30.9,35.7
					c4.9,0,9.1-0.6,15.6-2.4l3.1-18.8c-5.9,2.9-10.7,4.2-15,4.2c-10.3,0-16.5-7.6-16.5-20.1C359.2,204.8,368.5,192,381.7,192z"/>
				<path fill="#003473" d="M531.4,176.3l-3.9,23.9c-4.8-6.4-10-11-16.9-11c-8.9,0-17,6.8-22.4,16.7c-7.4-1.5-15.1-4.2-15.1-4.2
					l0,0.1c0.6-5.6,0.8-9,0.8-10.1h-16.3c-2.2,20.8-6.1,41.9-9.2,62.7l-0.8,4.5h17.7c2.4-15.5,4.2-28.4,5.6-38.6
					c6.1-5.5,9.1-10.2,15.2-9.9c-2.7,6.5-4.3,14.1-4.3,21.8c0,16.8,8.5,27.9,21.4,27.9c6.5,0,11.5-2.2,16.3-7.4l-0.8,6.3h16.7
					l13.5-82.6L531.4,176.3L531.4,176.3z M509.3,243.4c-6,0-9.1-4.5-9.1-13.3c0-13.2,5.7-22.6,13.7-22.6c6.1,0,9.4,4.6,9.4,13.2
					C523.3,234.1,517.5,243.4,509.3,243.4z"/>
			</g>
			<g>
				<polygon fill="#FFFFFF" points="111.8,254.1 94.1,254.1 104.2,190.5 81.6,254.1 69.5,254.1 68,190.9 57.4,254.1 40.8,254.1 
					54.7,171.4 80.1,171.4 80.8,222.6 98,171.4 125.5,171.4 				"/>
				<path fill="#FFFFFF" d="M155.3,224.1c-1.9-0.2-2.7-0.3-3.9-0.3c-10,0-15.1,3.4-15.1,10.2c0,4.2,2.5,6.9,6.3,6.9
					C149.8,240.9,155,234.1,155.3,224.1z M168.2,254.1c-2.4,0-14.7,0-14.7,0l0.3-7c-4.5,5.5-10.4,8.1-18.5,8.1
					c-9.6,0-16.2-7.5-16.2-18.4c0-16.4,11.4-25.9,31.1-25.9c2,0,4.6,0.2,7.2,0.5c0.5-2.2,0.7-3.2,0.7-4.4c0-4.4-3.1-6.1-11.3-6.1
					c-8.7-0.1-15.8,2.1-18.7,3c0.2-1.1,2.5-15.1,2.5-15.1c8.8-2.6,14.6-3.6,21.2-3.6c15.2,0,23.2,6.8,23.2,19.7
					c0,3.5-0.5,7.7-1.4,13.3C171.9,228.1,168.6,249,168.2,254.1z"/>
				<path fill="#FFFFFF" d="M405.5,173.6l-2.9,17.9c-6.3-3.2-10.9-4.5-15.8-4.5c-13.2,0-22.5,12.8-22.5,31
					c0,12.5,6.2,20.1,16.5,20.1c4.4,0,9.2-1.3,15-4.2l-3.1,18.8c-6.5,1.8-10.7,2.4-15.6,2.4c-19,0-30.9-13.7-30.9-35.7
					c0-29.5,16.4-50.2,39.8-50.2C393.7,169.4,402.9,172.6,405.5,173.6z"/>
				<path fill="#FFFFFF" d="M434,224.1c-1.8-0.2-2.7-0.3-3.9-0.3c-10,0-15.1,3.4-15.1,10.2c0,4.2,2.5,6.9,6.3,6.9
					C428.5,240.9,433.7,234.1,434,224.1z M446.9,254.1c-2.4,0-14.7,0-14.7,0l0.3-7c-4.5,5.5-10.4,8.1-18.5,8.1
					c-9.6,0-16.2-7.5-16.2-18.4c0-16.4,11.4-25.9,31.1-25.9c2,0,4.6,0.2,7.2,0.5c0.5-2.2,0.7-3.2,0.7-4.4c0-4.4-3.1-6.1-11.3-6.1
					c-8.6-0.1-15.8,2.1-18.7,3c0.2-1.1,2.5-15.1,2.5-15.1c8.8-2.6,14.6-3.6,21.2-3.6c15.2,0,23.2,6.8,23.2,19.7
					c0,3.5-0.5,7.7-1.4,13.3C450.6,228.1,447.3,249,446.9,254.1z"/>
				<path fill="#FFFFFF" d="M246.8,253c-4.8,1.5-8.6,2.2-12.7,2.2c-9,0-14-5.2-14-14.8c-0.1-3,1.3-10.8,2.4-17.9
					c1-6.3,7.7-45.9,7.7-45.9h17.6l-2.1,10.2h9l-2.4,16.2h-9.1c-2,12.8-5,28.7-5,30.8c0,3.5,1.9,5,6.1,5c2,0,3.6-0.2,4.8-0.6
					L246.8,253z"/>
				<path fill="#FFFFFF" d="M300.7,252.5c-6,1.9-11.9,2.7-18,2.7c-19.7,0-29.9-10.3-29.9-30c0-23,13.1-39.9,30.8-39.9
					c14.5,0,23.8,9.5,23.8,24.3c0,4.9-0.6,9.7-2.2,16.5h-35c-1.2,9.8,5.1,13.8,15.3,13.8c6.3,0,12-1.3,18.3-4.2L300.7,252.5z
					 M290.8,212.7c0.1-1.4,1.9-12-8.2-12c-5.6,0-9.6,4.3-11.2,12H290.8z"/>
				<path fill="#FFFFFF" d="M178.8,208.1c0,8.5,4.1,14.4,13.5,18.8c7.2,3.4,8.3,4.4,8.3,7.4c0,4.2-3.2,6.1-10.2,6.1
					c-5.3,0-10.2-0.8-15.9-2.6c0,0-2.3,14.8-2.4,15.5c4,0.9,7.6,1.7,18.4,2c18.7,0,27.3-7.1,27.3-22.5c0-9.2-3.6-14.7-12.5-18.7
					c-7.4-3.4-8.3-4.2-8.3-7.3c0-3.6,2.9-5.5,8.7-5.5c3.5,0,8.2,0.4,12.7,1l2.5-15.6c-4.6-0.7-11.5-1.3-15.6-1.3
					C185.6,185.3,178.7,195.7,178.8,208.1z"/>
				<path fill="#FFFFFF" d="M540.5,254.1h-16.7l0.8-6.3c-4.9,5.2-9.8,7.4-16.3,7.4c-12.9,0-21.4-11.1-21.4-27.9
					c0-22.4,13.2-41.2,28.8-41.2c6.9,0,12.1,2.8,16.9,9.2l3.9-23.9H554L540.5,254.1z M514.4,238.5c8.2,0,14-9.3,14-22.6
					c0-8.5-3.3-13.2-9.4-13.2c-8,0-13.7,9.4-13.7,22.6C505.3,234.1,508.4,238.5,514.4,238.5z"/>
				<path fill="#FFFFFF" d="M462.8,186.9c-2.2,20.8-6.1,41.9-9.2,62.7l-0.8,4.5h17.7c6.3-41.1,7.9-49.1,17.8-48.1
					c1.6-8.4,4.5-15.8,6.7-19.5c-7.4-1.5-11.5,2.6-17,10.6c0.4-3.4,1.2-6.8,1.1-10.2L462.8,186.9L462.8,186.9z"/>
				<path fill="#FFFFFF" d="M317.2,186.9c-2.2,20.8-6.2,41.9-9.2,62.7l-0.8,4.5h17.7c6.3-41.1,7.9-49.1,17.8-48.1
					c1.6-8.4,4.5-15.8,6.7-19.5c-7.4-1.5-11.5,2.6-17,10.6c0.4-3.4,1.2-6.8,1.1-10.2L317.2,186.9L317.2,186.9z"/>
				<g>
					<path fill="#FFFFFF" d="M548.3,248.8c0-2.9,2.4-5.3,5.3-5.3c2.9,0,5.3,2.3,5.3,5.3c0,2.9-2.3,5.3-5.3,5.3
						C550.6,254.1,548.3,251.7,548.3,248.8z M553.5,252.8c2.2,0,4-1.8,4-4c0-2.2-1.8-4-4-4c-2.2,0-4,1.8-4,4
						C549.5,251,551.3,252.8,553.5,252.8z M552.8,251.1h-1.1v-4.6h2c0.4,0,0.8,0,1.2,0.2c0.4,0.3,0.6,0.7,0.6,1.2
						c0,0.5-0.3,1-0.8,1.2l0.8,2h-1.2l-0.7-1.8h-0.8V251.1z M552.8,248.5h0.6c0.2,0,0.5,0,0.7-0.1c0.2-0.1,0.3-0.3,0.3-0.5
						c0-0.2-0.1-0.4-0.3-0.5c-0.2-0.1-0.5-0.1-0.7-0.1h-0.6L552.8,248.5L552.8,248.5z"/>
				</g>
			</g>
		</g>
	</g>
</g>
</svg>
