<?xml version="1.0" encoding="utf-8"?>
<!-- Generator: Adobe Illustrator 18.0.0, SVG Export Plug-In . SVG Version: 6.00 Build 0)  -->
<!DOCTYPE svg PUBLIC "-//W3C//DTD SVG 1.1//EN" "http://www.w3.org/Graphics/SVG/1.1/DTD/svg11.dtd">
<svg version="1.1" id="Layer_1" xmlns="http://www.w3.org/2000/svg" xmlns:xlink="http://www.w3.org/1999/xlink" x="0px" y="0px"
	 viewBox="0 0 216 137.2" enable-background="new 0 0 216 137.2" xml:space="preserve">
<rect x="0" y="0" fill="#FFFFFF" width="216" height="137.2"/>
<rect x="3.6" y="114.9" fill="#FCB316" width="208.8" height="18.7"/>
<rect x="3.6" y="3.6" fill="#10357F" width="208.8" height="18.7"/>
<path fill="#10357F" d="M87.2,42.9L65.6,94.4H51.5L40.9,53.3c-0.6-2.5-1.2-3.5-3.2-4.5c-3.2-1.7-8.5-3.4-13.1-4.4l0.3-1.5h22.7
	c2.9,0,5.5,1.9,6.1,5.2L59.3,78l13.8-35H87.2z M142.3,77.6c0.1-13.6-18.8-14.3-18.6-20.4c0-1.8,1.8-3.8,5.6-4.3
	c1.9-0.2,7.2-0.4,13.1,2.3l2.3-10.9c-3.2-1.2-7.3-2.3-12.5-2.3c-13.2,0-22.4,7-22.5,17c-0.1,7.4,6.6,11.5,11.6,14
	c5.2,2.5,6.9,4.1,6.9,6.4c0,3.5-4.1,5-8,5c-6.7,0.1-10.6-1.8-13.7-3.3l-2.4,11.3c3.1,1.4,8.9,2.7,14.8,2.7
	C133.1,95.2,142.3,88.3,142.3,77.6 M177.1,94.4h12.3l-10.8-51.5h-11.4c-2.6,0-4.7,1.5-5.7,3.8l-20,47.7h14l2.8-7.7h17.1L177.1,94.4z
	 M162.2,76.2l7-19.3l4,19.3H162.2z M106.2,42.9l-11,51.5H81.9l11-51.5H106.2z"/>
</svg>
